<svg xmlns="http://www.w3.org/2000/svg" viewBox="0 0 1845 685.47"><defs><style>.cls-1{fill:#fff;}</style></defs><g id="Camada_2" data-name="Camada 2"><g id="Camada_1-2" data-name="Camada 1"><path class="cls-1" d="M418.45,0c96-1.82,177.47,65.81,192,161,5.24,34.33-1.78,67.61-15.32,99.77a216.59,216.59,0,0,1-53.94,76.59c-5.72,5.24-3.46,7.77,1.12,12,31.13,28.43,51.14,63.46,62.86,103.9,21.29,73.47-11.51,152.5-68.95,194.28-52.13,37.92-108.31,44.78-168.81,32.16-55-11.48-102.15-39-144.92-74.61-19.83-16.52-39.14-33.63-56.7-52.58C130.31,514.24,96.85,474.28,64.2,433.61Q37.39,400.2,10.27,367c-13.49-16.5-13.74-31.13-.46-47.58,21.63-26.81,43-53.82,65-80.4,38.52-46.72,76.64-93.8,121-135.34,40.51-37.95,85.19-69.38,137.85-88.22A320.62,320.62,0,0,1,371.47,4.64C386.87,1.21,402.69.65,418.45,0ZM288.11,112.38c3.81,4,8,3.14,11.83,3.8,20.09,3.48,39.55,9.24,55.4,22.42,19.77,16.44,36.27,35,45.53,60.41,9.06,24.9,10.75,49,4.28,74a143.61,143.61,0,0,1-34.72,62.89c-4.62,4.93-5.66,9.05,0,13.84a48.85,48.85,0,0,1,6.56,7.41c43.25,55.72,46.49,122.92-3.56,174.5-20.33,21-44.77,35.18-74.84,37.55-3.41.27-8.48-.18-9.36,3.5-1,4.36,4.46,5.23,7.31,7.09a301.9,301.9,0,0,0,51.37,26.91c37,15.07,74.58,21.29,113.73,8,30.52-10.33,54.13-28.53,70.32-56.69,15.5-27,18.57-55.65,11.33-85.08-11.1-45.15-37.71-78.74-79.62-99.63-12.95-6.45-20.43-16.22-20.41-31.06,0-14.63,8.15-23.34,20.51-29.72,41.32-21.34,68-54.5,79.49-99.73,18.55-72.82-36.3-139-104.71-147.21-33.9-4.07-65.39,3.49-96.3,15.93C322.89,89.36,304.75,99.21,288.11,112.38Zm56.54,132.36c.07-27.94-17.09-51.32-39.47-60.21-27.54-10.93-53.32-4.66-78.32,7.29-29.88,14.29-54.81,35-76.59,60.07-24,27.65-47.24,55.94-70.35,84.33-3.16,3.89-5.32,7-1,12.27,23.81,28.77,46.77,58.26,72,85.8,23,25.09,47.68,48.31,79.81,61.65,22.33,9.28,44.64,13.47,69.38,7.4,24.49-6,49.94-39.41,44-66.91-6.37-29.44-22.84-50.13-49.06-63.81-12.83-6.69-19.63-17-19-31.72.6-13.94,8.28-22,20.39-28.57C325,296.93,343,273.72,344.65,244.74Z"/><path class="cls-1" d="M1128,148.09c-3.18,4.09-2,8.64-2,12.91-.08,48.14-.49,96.28.23,144.41.18,12-4.47,16.8-15.24,17.94-2.19.23-4.39.45-6.58.55-28.75,1.39-31.71-1.35-31.71-29.43q0-96.47,0-192.93c0-19,7.74-26.79,26.5-26.87,9.92,0,19.85-.19,29.77,0,20.67.45,31.36,7.8,38.28,26.87,14.6,40.21,28.91,80.53,43.37,120.78,1.71,4.76,3.64,9.43,6.67,17.25,9.11-23.83,17.17-44.75,25.11-65.72,9.59-25.29,19-50.66,28.65-75.91,6.29-16.42,15.94-23,33.49-23.28,9.92-.15,19.85-.07,29.77,0,18.65.1,25.89,7.1,25.93,26.05.14,61.37,0,122.73.07,184.1,0,7.7.67,15.4.59,23.09-.09,8.28-3.37,13.5-12.71,14.77a96,96,0,0,1-28.37,0c-9.89-1.56-13.37-6.56-13.3-16.46.33-47.77.13-95.54.12-143.31a53.92,53.92,0,0,0-.06-6.61c-.28-2.25,1.43-6-2.33-6.19-2.91-.19-3.44,3.22-4.27,5.62-3.1,9-6.15,18.06-9.37,27-15.18,42.27-30.6,84.45-45.44,126.83-2.8,8-7.37,12.24-15.36,13.49a82,82,0,0,1-32.76-1.26c-6.45-1.61-9.43-6.25-11.46-12.15q-25.51-74.15-51.28-148.19C1132.65,156.93,1132.19,151.69,1128,148.09Z"/><path class="cls-1" d="M834.4,188.3C860.45,200,874,219.71,873.82,247.2c-.15,28.61-13,50.59-39.24,63.61a105.64,105.64,0,0,1-44.5,10.92c-26.43.66-52.89.5-79.34.4-12-.05-17.56-5.23-18.72-17-.61-6.19-.5-12.47-.51-18.71q-.07-92-.06-184c0-22.61,5.16-28,27.91-27.65,26,.42,52.09-1.31,78.13,1.89,32,3.93,55.4,20.94,60,47.71C861.69,148.37,860.64,166.62,834.4,188.3Zm-87.84,58.47c0,7.7.26,15.41-.08,23.1-.28,6.33,2.39,8.3,8.49,8.09,10.62-.38,21.27.11,31.89-.16,16-.42,27.21-10.63,29-25.91,1.86-15.59-6.21-28.17-21.58-32.34a78.82,78.82,0,0,0-20.57-3c-32.3.09-26.56-4.87-27.17,25.77C746.54,243.84,746.57,245.31,746.56,246.77Zm.49-101.57v2.21c0,27.63,0,27.63,27.34,26.63,18.46-.68,29.11-11.29,29-28.87-.13-16.62-10.86-26-29.89-26.19C747,118.74,747,118.74,747.05,145.2Z"/><path class="cls-1" d="M1215.9,479.39c0-34.88.14-69.77-.09-104.65-.07-11,5.06-18.67,15.55-18.8,36.94-.45,74.17-4,110.63,5,46.1,11.46,71.35,42.19,79,88.18a173.43,173.43,0,0,1-4.64,77.33c-13,44.89-47,70.89-97.3,75.56-27.83,2.58-55.7,1.67-83.56,1.63-14,0-19.58-6.31-19.63-20.72-.11-34.52,0-69,0-103.55Zm55.46-.59v51.73c0,28.28,0,28.28,28.54,27.05,32.69-1.4,52.6-15.73,60.72-44.34a125.39,125.39,0,0,0,2.44-57.72c-6.66-35.52-27.94-53.09-64-54.2-6.6-.21-13.23.26-19.81-.21s-8,2.36-8,8.35C1271.51,432.57,1271.36,455.69,1271.36,478.8Z"/><path class="cls-1" d="M1659.17,481.74c0-35.28-.07-70.55,0-105.83,0-14,5.89-20.61,19.87-20.45,29.33.33,58.68-1.55,88,1.55s54.39,20.84,62.07,45.32c9,28.74.57,58.35-21.28,77a18.59,18.59,0,0,1-5,2.75,8.14,8.14,0,0,0-3,12.79,54.26,54.26,0,0,1,5.12,7.12c16.18,27.11,27.61,56.4,38.61,85.81,3.61,9.65-.22,14.63-10.59,16-11.32,1.45-22.73.9-34.11.26-9.39-.53-13-7.2-15.93-14.5-8.27-20.3-16.25-40.72-24.73-60.94-6.19-14.75-16.7-23.53-33.65-23.74-7.39-.09-10.28,1.52-10.11,9.6.53,24.61-.18,49.24.41,73.85.25,10.55-4.46,14.74-14.07,15.36-1.1.07-2.19.24-3.29.36-35.29,3.71-38.44.93-38.44-34.07Q1659.16,525.84,1659.17,481.74ZM1714.78,431c0,7.7.22,15.4-.07,23.08-.2,5.17,1.63,7.32,6.92,7.06,8.41-.4,16.92.24,25.25-.68,18.06-2,27.73-13.73,27.32-32.05-.38-17-9.13-25.84-27.77-27.38-8-.66-16.11-.05-24.14-.49-5.63-.31-8,1.47-7.64,7.39C1715.07,415.63,1714.75,423.34,1714.78,431Z"/><path class="cls-1" d="M884.63,447.82c0-25.73.33-51.46-.16-77.18-.19-9.81,4.2-14.18,13.16-15.22a130.94,130.94,0,0,1,28.61-.11c9.91,1,14.43,5.7,14.28,16.65-.56,43.36-.24,86.73-.21,130.09a143.94,143.94,0,0,0,.42,15.42c3.78,35.43,36,53.49,68.43,38.18,18.48-8.72,23.27-25.53,23.4-43.95.32-46.31.08-92.61.11-138.92,0-13.58,3-17,16.48-17.73,9.5-.5,19.06-1.13,28.53,1,7.15,1.6,10.47,5.52,10.43,13.11-.21,50,.66,100-.48,149.94s-35.48,83.9-85.42,87.63c-19.94,1.5-39.51,1.1-58.75-5-35.55-11.24-57.32-39.15-58.39-76.72-.73-25.71-.14-51.45-.14-77.17Z"/><path class="cls-1" d="M1616,604.52c-3.67,0-7.35-.11-11,0-11,.37-17.8-4.07-20.77-15.27s-7.53-22-11-33.08c-1.8-5.74-4.83-7.69-11-7.57-22.77.44-45.56.5-68.33,0-7-.16-9.44,2.69-11.23,8.76-3.52,11.9-7.83,23.57-11.75,35.35-1.18,3.55-2.3,7.49-6.05,8.74a70.81,70.81,0,0,1-43.22.48c-5.81-1.73-6.34-7.75-4.71-13.1,3.39-11.17,6.9-22.31,10.74-33.34,21.22-61.05,42.79-122,63.68-183.17,4.16-12.2,10.68-18.3,23.87-17.55,11,.63,22,.09,33,.15,9.8.05,16.32,4,19.77,13.94,24.38,70.4,49.1,140.67,73.66,211a71.77,71.77,0,0,1,2.51,9.58c1.69,8.55-1.86,13.68-10.55,14.42M1529.28,420.79l-2.78.07c-8.56,25.41-17.16,50.8-25.63,76.24-1.27,3.85-1.33,7.28,4.54,7.22q22.56-.24,45.11,0c4.49,0,6.21-1.79,4.81-6Q1542.37,459.53,1529.28,420.79Z"/><path class="cls-1" d="M896.15,198.32q0-50.71,0-101.43c0-16,6-22.15,21.76-22.2,37.12-.1,74.24.17,111.36-.17,9.74-.1,14.32,4,15,13.29.11,1.46.24,2.93.37,4.39,2.18,25-.89,28.47-25.32,28.48-19.84,0-39.69.19-59.53-.12-6.23-.1-8.45,1.9-8.23,8.19.41,11.74.47,23.52,0,35.27-.24,6.47,2.22,8.15,8.31,8,18.37-.31,36.75.21,55.12-.25,10.41-.27,16,3.75,16.73,14.27.16,2.55.72,5.1.7,7.65-.16,20-2.7,22.52-22.73,22.51-16.17,0-32.34.24-48.51-.12-6.93-.16-10,1.74-9.68,9.27.51,14.31.52,28.67,0,43-.24,7.21,1.94,9.46,9.28,9.32,23.15-.46,46.32.29,69.46-.38,10.66-.3,14.61,5.05,15.67,14.07a91.11,91.11,0,0,1,.12,15.41c-.64,11.85-4.5,15.42-16.42,15.42-37.49,0-75,.07-112.46-.13-16-.09-21-5.29-21-21.24C896.11,266.67,896.16,232.49,896.15,198.32Z"/><path class="cls-1" d="M740.47,479.59c1.26,13.58,1,26.05,4.8,38.18,11.71,37.08,38,44.61,71.73,38.73,10.57-1.84,19.86-7.21,29-12.72,12.91-7.76,18.65-4.35,19.3,10.9,1.27,30-4.19,38.54-33.21,46.4-39.48,10.7-77.88,10-112-16.4-18.82-14.53-29.13-34.5-34.22-57.39-8.23-37-7.69-73.61,6.68-109.14,29.63-73.22,112.71-77,155.2-54,16.67,9.05,23.82,35.18,14.35,51.81-4.38,7.68-10.19,5.69-15.8,1.83-10.93-7.53-22-14.84-35.49-16.69C773,396,747.36,417,742.09,457.74,741.11,465.37,740.94,473.1,740.47,479.59Z"/><path class="cls-1" d="M1123.52,478.28q0-52.86,0-105.72c0-12.79,3-15.95,15.76-17.46.73-.09,1.46-.13,2.19-.18,36.61-2.61,38.8-.6,38.8,35.61q0,96.9,0,193.81c0,15.41-1.8,17.35-17.2,19.3-1.09.14-2.14.52-3.23.63-32.36,3.23-36.3-.29-36.31-32.39Q1123.53,525.08,1123.52,478.28Z"/></g></g></svg>