<svg xmlns="http://www.w3.org/2000/svg" viewBox="0 0 612.17 685.47"><defs><style>.cls-1{fill:#fff;}</style></defs><g id="Camada_2" data-name="Camada 2"><g id="Camada_1-2" data-name="Camada 1"><path class="cls-1" d="M418.45,0c96-1.82,177.47,65.81,192,161,5.24,34.33-1.78,67.61-15.32,99.77a216.59,216.59,0,0,1-53.94,76.59c-5.72,5.24-3.46,7.77,1.12,12,31.13,28.43,51.14,63.46,62.86,103.9,21.29,73.47-11.51,152.5-68.95,194.28-52.13,37.92-108.31,44.78-168.81,32.16-55-11.48-102.15-39-144.92-74.61-19.83-16.52-39.14-33.63-56.7-52.58C130.31,514.24,96.85,474.28,64.2,433.61Q37.39,400.2,10.27,367c-13.49-16.5-13.74-31.13-.46-47.58,21.63-26.81,43-53.82,65-80.4,38.52-46.72,76.64-93.8,121-135.34,40.51-37.95,85.19-69.38,137.85-88.22A320.62,320.62,0,0,1,371.47,4.64C386.87,1.21,402.69.65,418.45,0ZM288.11,112.38c3.81,4,8,3.14,11.83,3.8,20.09,3.48,39.55,9.24,55.4,22.42,19.77,16.44,36.27,35,45.53,60.41,9.06,24.9,10.75,49,4.28,74a143.61,143.61,0,0,1-34.72,62.89c-4.62,4.93-5.66,9.05,0,13.84a48.85,48.85,0,0,1,6.56,7.41c43.25,55.72,46.49,122.92-3.56,174.5-20.33,21-44.77,35.18-74.84,37.55-3.41.27-8.48-.18-9.36,3.5-1,4.36,4.46,5.23,7.31,7.09a301.9,301.9,0,0,0,51.37,26.91c37,15.07,74.58,21.29,113.73,8,30.52-10.33,54.13-28.53,70.32-56.69,15.5-27,18.57-55.65,11.33-85.08-11.1-45.15-37.71-78.74-79.62-99.63-12.95-6.45-20.43-16.22-20.41-31.06,0-14.63,8.15-23.34,20.51-29.72,41.32-21.34,68-54.5,79.49-99.73,18.55-72.82-36.3-139-104.71-147.21-33.9-4.07-65.39,3.49-96.3,15.93C322.89,89.36,304.75,99.21,288.11,112.38Zm56.54,132.36c.07-27.94-17.09-51.32-39.47-60.21-27.54-10.93-53.32-4.66-78.32,7.29-29.88,14.29-54.81,35-76.59,60.07-24,27.65-47.24,55.94-70.35,84.33-3.16,3.89-5.32,7-1,12.27,23.81,28.77,46.77,58.26,72,85.8,23,25.09,47.68,48.31,79.81,61.65,22.33,9.28,44.64,13.47,69.38,7.4,24.49-6,49.94-39.41,44-66.91-6.37-29.44-22.84-50.13-49.06-63.81-12.83-6.69-19.63-17-19-31.72.6-13.94,8.28-22,20.39-28.57C325,296.93,343,273.72,344.65,244.74Z"/></g></g></svg>